<svg width="64" height="64" viewBox="0 0 64 64" fill="none" xmlns="http://www.w3.org/2000/svg">
<path d="M19.0938 4C10.7813 4 4 10.7813 4 19.0938V40.9219C4 49.2188 10.7813 56 19.0938 56H40.9219C49.2188 56 56 49.2188 56 40.9063V19.0938C56 10.7813 49.2188 4 40.9063 4H19.0938ZM19.0938 8H40.9063C47.0625 8 52 12.9375 52 19.0938V40.9063C52 47.0625 47.0625 52 40.9219 52H19.0938C12.9375 52 8 47.0625 8 40.9219V19.0938C8 12.9375 12.9375 8 19.0938 8ZM46 12C44.8906 12 44 12.8906 44 14C44 15.1094 44.8906 16 46 16C47.1094 16 48 15.1094 48 14C48 12.8906 47.1094 12 46 12ZM30 16C22.2969 16 16 22.2969 16 30C16 37.7031 22.2969 44 30 44C37.7031 44 44 37.7031 44 30C44 22.2969 37.7031 16 30 16ZM30 20C35.5469 20 40 24.4531 40 30C40 35.5469 35.5469 40 30 40C24.4531 40 20 35.5469 20 30C20 24.4531 24.4531 20 30 20Z" fill="black"/>
</svg>
