<svg width="64" height="64" viewBox="0 0 64 64" fill="none" xmlns="http://www.w3.org/2000/svg">
<g clip-path="url(#clip0_11_1194)">
<path d="M30.7813 12.078C27.4688 12.0468 24.9688 12.203 22.875 13.2812C22.0156 13.7187 21.4063 14.2812 20.9375 14.9374C20.6875 15.2655 20.4531 15.5624 20.3438 16.2499C20.2813 16.578 20.2344 17.1249 20.5781 17.7187C20.9219 18.328 21.6563 18.7343 22.1563 18.8124C22.5313 18.8593 23.3281 19.1874 23.4688 19.3749C23.7969 19.8437 23.9219 20.1874 23.9688 20.3749C24.0156 20.5624 24 20.4374 24 20.4374V20.6249C24 20.6249 24.125 22.5937 24.0469 24.6249C24 25.6249 23.9063 26.6718 23.75 27.3749C23.5938 28.078 23.2031 28.2499 23.7656 27.9218C23.375 28.1562 23.5156 28.2499 23.0313 27.9999C22.5313 27.7655 21.2344 26.6718 19.5313 23.6093C17.8281 20.5312 16.5938 18.9374 16.3125 18.5937C16.2031 18.2812 15.9375 17.6405 15.0313 16.9374C13.8594 16.0312 12.6563 16.0155 12.6563 16.0155L12.5469 15.9999H3.8125C3.8125 15.9999 3.3125 16.0155 2.73438 16.1405C2.15625 16.2655 1.32812 16.4062 0.546877 17.3749H0.531253C-0.265624 18.3905 -0.124999 19.3124 -0.0624993 19.8749C0.0156257 20.453 0.187501 20.9062 0.187501 20.9062L0.218751 20.9999L0.265626 21.0937C0.265626 21.0937 6.9375 35.328 14.9063 43.9999C22.3906 52.1562 31.0625 51.9999 31.0625 51.9999H35.9844L36.0938 51.9843C36.0938 51.9843 37.6719 52.0624 39 50.578C39.6719 49.8124 39.8281 49.0937 39.9063 48.5624C40 48.0155 40 47.578 40 47.578V47.703C40 47.703 40.0625 46.6718 40.3438 45.5937C40.4844 45.0624 40.6875 44.5312 40.875 44.2343C40.9688 44.0624 40.9688 44.1093 41 44.0624C41.3438 44.3124 41.9063 44.8905 42.5 45.6249C43.7188 47.078 45.0938 49.0937 47.0156 50.4843C48.4063 51.4687 49.7188 51.9062 50.7188 52.0624C51.3906 52.1718 51.875 52.1562 52.2031 52.1249L59 51.9999H59.0625C59.0625 51.9999 60.4688 51.9687 61.875 51.078C62.5625 50.6405 63.3594 49.8437 63.625 48.703C63.9062 47.5624 63.5938 46.328 62.9375 45.1874C63.1563 45.578 62.8906 45.0624 62.6875 44.6562C62.4844 44.2499 62.1719 43.703 61.7031 43.0155C60.7969 41.6718 59.2969 39.7812 56.8125 37.3749C55.6406 36.2499 54.8906 35.6249 54.4219 35.1874C54.5625 34.9843 54.5781 34.9687 55.1094 34.3437C55.9531 33.3593 57.1875 31.9062 58.75 29.7343C60.625 27.1093 61.9844 24.9687 62.8594 23.1874C63.7344 21.4218 64.4375 19.953 63.6563 18.1405C63.2344 17.1561 62.4844 16.7812 61.9375 16.5468C61.375 16.3124 60.875 16.2186 60.4063 16.1405C59.4844 15.9999 58.6719 15.9999 58.6719 15.9999L50.75 16.0624C50.5156 16.0155 49.6094 15.8437 48.4375 16.5937C47.2813 17.3124 47.0156 18.078 46.9531 18.3124C46.7656 18.578 45.4531 20.4374 43.625 23.6874C41.7813 26.9687 40.5313 27.8593 40.375 27.9374C40.3281 27.8905 40.4219 27.9062 40.2031 27.7812C40.1094 27.703 40.0156 27.6405 39.9375 26.7968C39.875 25.953 39.9531 24.6249 39.9531 23.0624C39.9531 19.703 40.25 17.953 40.0781 16.2812C40 15.4374 39.6563 14.4062 38.9063 13.7187C38.1563 13.0468 37.3438 12.7968 36.5 12.578C35.1719 12.2499 33.375 12.1093 30.7813 12.078ZM30.75 16.078C33.1719 16.1093 34.875 16.2968 35.5 16.453C36.0313 16.5936 36.1094 16.6562 36.0938 16.6249C36.0938 16.6562 36.0938 16.6405 36.0938 16.6874C36.1563 17.3593 35.9531 19.5155 35.9531 23.0624C35.9531 24.453 35.8438 25.7968 35.9531 27.1405C36.0625 28.4843 36.5469 30.1249 37.9688 31.0937H37.9844C37.8125 30.9843 39.7813 32.453 41.6563 31.7812C43.5313 31.0937 45.0156 29.3749 47.125 25.6405C48.9688 22.328 50.3281 20.4687 50.3281 20.4687L50.4531 20.2812L50.5469 20.0937C50.5469 20.0937 50.5156 20.078 50.5469 20.0624L58.6719 19.9999C58.6719 19.9999 59.2344 19.9999 59.7813 20.0937C59.7969 20.0937 59.8125 20.0937 59.8281 20.0937C59.75 20.1249 59.8125 20.328 59.2656 21.4374C58.5625 22.8593 57.2969 24.8905 55.5 27.4062C54.0156 29.453 52.9063 30.7812 52.0781 31.7499C51.25 32.703 50.625 33.1562 50.2188 34.4062C50.0156 35.0155 50.0625 35.9218 50.3594 36.5312C50.6406 37.1249 50.9844 37.453 51.3281 37.7812C52.0156 38.4374 52.8281 39.078 54.0156 40.2499C56.3438 42.4999 57.6563 44.1562 58.3906 45.2499C58.7656 45.8124 58.9844 46.203 59.125 46.4843C59.2656 46.7655 59.1719 46.6562 59.4844 47.1874C59.75 47.6718 59.7031 47.7343 59.7031 47.703C59.4375 47.8593 58.7656 47.9999 58.75 47.9999L51.9531 48.1249L51.7656 48.1718C51.7656 48.1718 51.7812 48.1874 51.3594 48.1249C50.9219 48.0468 50.2344 47.8593 49.3594 47.2343C48.2812 46.4687 46.9219 44.6874 45.5781 43.0624C44.9219 42.2655 44.25 41.4843 43.4063 40.8593C42.5625 40.2343 41.2344 39.6562 39.875 40.1093C38.7031 40.4843 37.9375 41.3437 37.4531 42.1405C36.9688 42.953 36.6875 43.7968 36.4688 44.5624C36.0625 46.1093 36 47.4999 36 47.4999V47.6249C36 47.6249 36 47.7187 35.9688 47.8593C35.8906 47.8905 35.7813 47.9687 35.7188 47.9999H30.9375C30.9375 47.9999 24.3281 48.3437 17.8438 41.3124C10.9063 33.7343 4.73438 21.0624 4.21875 19.9999H12.2656C12.3438 20.0312 12.625 20.1405 12.5938 20.1249C12.4063 19.9687 12.6875 20.3124 12.6875 20.3124L12.8125 20.6093L13.0313 20.8593C13.0313 20.8593 14.2656 22.3593 16.0313 25.5468C17.9219 28.9687 19.5156 30.7499 21.2969 31.6093C23.0781 32.4687 24.9531 31.8593 25.75 31.4062C27.2344 30.5468 27.4063 29.3437 27.6563 28.2343C27.9063 27.1249 27.9844 25.9374 28.0313 24.7812C28.125 22.5624 28 20.6718 28 20.5312C27.9844 20.4843 27.9844 19.9374 27.8281 19.3437C27.6563 18.7343 27.3438 17.9374 26.75 17.0937C26.5 16.7499 26.2656 16.9218 26 16.6718C27.1094 16.3593 28.2969 16.0468 30.75 16.078Z" fill="black"/>
</g>
<defs>
<clipPath id="clip0_11_1194">
<rect width="64" height="64" fill="white"/>
</clipPath>
</defs>
</svg>
