<svg width="64" height="64" viewBox="0 0 64 64" fill="none" xmlns="http://www.w3.org/2000/svg">
<path d="M9.95312 12.0469C6.65625 12.0469 3.95312 14.75 3.95312 18.0469V46.0469C3.95312 49.3438 6.65625 52.0469 9.95312 52.0469H53.9531C57.2344 52.0469 59.9531 49.3438 59.9531 46.0469V18.0469C59.9531 14.75 57.25 12.0469 53.9531 12.0469H9.95312ZM9.95312 16.0469H53.9531C55.0781 16.0469 55.9531 16.9219 55.9531 18.0469V46.0469C55.9531 47.1719 55.0781 48.0469 53.9531 48.0469H9.95312C8.82812 48.0469 7.95312 47.1719 7.95312 46.0469V18.0469C7.95312 16.9219 8.82812 16.0469 9.95312 16.0469ZM24 19.9688V44.0469L44 32L24 19.9688ZM28 27.0313L36.25 32L28 36.9688V27.0313Z" fill="black"/>
</svg>
